HIERARCHY
ROOT mixamorig7:Hips
{
	OFFSET 0.000000 99.793892 0.000000
	CHANNELS 6 Xposition Yposition Zposition Xrotation Yrotation Zrotation
	JOINT mixamorig7:Spine
	{
		OFFSET 0.000000 9.694397 -1.109700
		CHANNELS 3 Xrotation Yrotation Zrotation
		JOINT mixamorig7:Spine1
		{
			OFFSET 0.000000 11.310143 -1.294687
			CHANNELS 3 Xrotation Yrotation Zrotation
			JOINT mixamorig7:Spine2
			{
				OFFSET 0.000000 12.925888 -1.479643
				CHANNELS 3 Xrotation Yrotation Zrotation
				JOINT mixamorig7:Neck
				{
					OFFSET 0.000000 14.541641 -1.664600
					CHANNELS 3 Xrotation Yrotation Zrotation
					JOINT mixamorig7:Head
					{
						OFFSET 0.000000 6.944305 1.982500
						CHANNELS 3 Xrotation Yrotation Zrotation
						JOINT mixamorig7:HeadTop_End
						{
							OFFSET 0.000000 22.789597 6.506100
							CHANNELS 3 Xrotation Yrotation Zrotation
							End Site
							{
								OFFSET 0.000000 23.700119 0.000000
							}
						}
					}
				}
				JOINT mixamorig7:LeftShoulder
				{
					OFFSET 6.681300 12.786087 -1.621969
					CHANNELS 3 Xrotation Yrotation Zrotation
					JOINT mixamorig7:LeftArm
					{
						OFFSET 13.585576 -3.446136 0.085203
						CHANNELS 3 Xrotation Yrotation Zrotation
						JOINT mixamorig7:LeftForeArm
						{
							OFFSET 27.330299 0.000000 -0.000001
							CHANNELS 3 Xrotation Yrotation Zrotation
							JOINT mixamorig7:LeftHand
							{
								OFFSET 20.888802 0.000000 -0.000001
								CHANNELS 3 Xrotation Yrotation Zrotation
								JOINT mixamorig7:LeftHandThumb1
								{
									OFFSET 3.934731 -1.328445 2.632622
									CHANNELS 3 Xrotation Yrotation Zrotation
									JOINT mixamorig7:LeftHandThumb2
									{
										OFFSET 3.046997 -1.759186 1.759186
										CHANNELS 3 Xrotation Yrotation Zrotation
										JOINT mixamorig7:LeftHandThumb3
										{
											OFFSET 2.671288 -1.542267 1.542270
											CHANNELS 3 Xrotation Yrotation Zrotation
											JOINT mixamorig7:LeftHandThumb4
											{
												OFFSET 2.059540 -1.189072 1.189075
												CHANNELS 3 Xrotation Yrotation Zrotation
												End Site
												{
													OFFSET 1.871078 -1.157242 1.493111
												}
											}
										}
									}
								}
								JOINT mixamorig7:LeftHandIndex1
								{
									OFFSET 11.356102 -0.357925 2.480554
									CHANNELS 3 Xrotation Yrotation Zrotation
									JOINT mixamorig7:LeftHandIndex2
									{
										OFFSET 3.230431 0.000000 -0.000000
										CHANNELS 3 Xrotation Yrotation Zrotation
										JOINT mixamorig7:LeftHandIndex3
										{
											OFFSET 3.093842 0.000000 -0.000000
											CHANNELS 3 Xrotation Yrotation Zrotation
											JOINT mixamorig7:LeftHandIndex4
											{
												OFFSET 2.710304 0.000000 -0.000000
												CHANNELS 3 Xrotation Yrotation Zrotation
												End Site
												{
													OFFSET 2.710297 0.000031 0.002100
												}
											}
										}
									}
								}
								JOINT mixamorig7:LeftHandMiddle1
								{
									OFFSET 11.227951 0.000000 -0.000001
									CHANNELS 3 Xrotation Yrotation Zrotation
									JOINT mixamorig7:LeftHandMiddle2
									{
										OFFSET 3.465431 0.000000 0.000000
										CHANNELS 3 Xrotation Yrotation Zrotation
										JOINT mixamorig7:LeftHandMiddle3
										{
											OFFSET 3.340118 0.000000 0.000000
											CHANNELS 3 Xrotation Yrotation Zrotation
											JOINT mixamorig7:LeftHandMiddle4
											{
												OFFSET 2.993599 0.000000 0.000000
												CHANNELS 3 Xrotation Yrotation Zrotation
												End Site
												{
													OFFSET 2.993607 -0.000061 -0.003500
												}
											}
										}
									}
								}
								JOINT mixamorig7:LeftHandRing1
								{
									OFFSET 11.215385 -0.016006 -2.298895
									CHANNELS 3 Xrotation Yrotation Zrotation
									JOINT mixamorig7:LeftHandRing2
									{
										OFFSET 2.891907 0.000000 0.000000
										CHANNELS 3 Xrotation Yrotation Zrotation
										JOINT mixamorig7:LeftHandRing3
										{
											OFFSET 2.705215 0.000000 0.000000
											CHANNELS 3 Xrotation Yrotation Zrotation
											JOINT mixamorig7:LeftHandRing4
											{
												OFFSET 2.307037 0.000000 0.000000
												CHANNELS 3 Xrotation Yrotation Zrotation
												End Site
												{
													OFFSET 2.307007 0.000351 0.012295
												}
											}
										}
									}
								}
								JOINT mixamorig7:LeftHandPinky1
								{
									OFFSET 9.863464 -0.351425 -4.395246
									CHANNELS 3 Xrotation Yrotation Zrotation
									JOINT mixamorig7:LeftHandPinky2
									{
										OFFSET 2.647736 0.000000 0.000000
										CHANNELS 3 Xrotation Yrotation Zrotation
										JOINT mixamorig7:LeftHandPinky3
										{
											OFFSET 2.219719 0.000000 0.000000
											CHANNELS 3 Xrotation Yrotation Zrotation
											JOINT mixamorig7:LeftHandPinky4
											{
												OFFSET 1.855507 0.000000 0.000000
												CHANNELS 3 Xrotation Yrotation Zrotation
												End Site
												{
													OFFSET 1.855507 -0.000122 -0.005599
												}
											}
										}
									}
								}
							}
						}
					}
				}
				JOINT mixamorig7:RightShoulder
				{
					OFFSET -6.681300 12.786102 -1.707222
					CHANNELS 3 Xrotation Yrotation Zrotation
					JOINT mixamorig7:RightArm
					{
						OFFSET -13.585576 -3.446152 -0.085196
						CHANNELS 3 Xrotation Yrotation Zrotation
						JOINT mixamorig7:RightForeArm
						{
							OFFSET -27.318214 0.000000 0.000002
							CHANNELS 3 Xrotation Yrotation Zrotation
							JOINT mixamorig7:RightHand
							{
								OFFSET -20.889801 0.000000 0.000001
								CHANNELS 3 Xrotation Yrotation Zrotation
								JOINT mixamorig7:RightHandThumb1
								{
									OFFSET -4.042946 -1.401764 2.740883
									CHANNELS 3 Xrotation Yrotation Zrotation
									JOINT mixamorig7:RightHandThumb2
									{
										OFFSET -3.149010 -1.818085 1.818083
										CHANNELS 3 Xrotation Yrotation Zrotation
										JOINT mixamorig7:RightHandThumb3
										{
											OFFSET -2.605377 -1.504211 1.504218
											CHANNELS 3 Xrotation Yrotation Zrotation
											JOINT mixamorig7:RightHandThumb4
											{
												OFFSET -2.034538 -1.174637 1.174643
												CHANNELS 3 Xrotation Yrotation Zrotation
												End Site
												{
													OFFSET -1.808716 -1.141098 1.524937
												}
											}
										}
									}
								}
								JOINT mixamorig7:RightHandIndex1
								{
									OFFSET -11.498108 -0.223465 2.596514
									CHANNELS 3 Xrotation Yrotation Zrotation
									JOINT mixamorig7:RightHandIndex2
									{
										OFFSET -3.230072 0.000000 0.000000
										CHANNELS 3 Xrotation Yrotation Zrotation
										JOINT mixamorig7:RightHandIndex3
										{
											OFFSET -3.008400 0.000000 0.000000
											CHANNELS 3 Xrotation Yrotation Zrotation
											JOINT mixamorig7:RightHandIndex4
											{
												OFFSET -2.577469 0.000000 0.000000
												CHANNELS 3 Xrotation Yrotation Zrotation
												End Site
												{
													OFFSET -2.577400 -0.000381 -0.019196
												}
											}
										}
									}
								}
								JOINT mixamorig7:RightHandMiddle1
								{
									OFFSET -11.291573 0.000000 0.000000
									CHANNELS 3 Xrotation Yrotation Zrotation
									JOINT mixamorig7:RightHandMiddle2
									{
										OFFSET -3.513855 0.000000 0.000000
										CHANNELS 3 Xrotation Yrotation Zrotation
										JOINT mixamorig7:RightHandMiddle3
										{
											OFFSET -3.299538 0.000000 0.000000
											CHANNELS 3 Xrotation Yrotation Zrotation
											JOINT mixamorig7:RightHandMiddle4
											{
												OFFSET -2.888702 0.000000 0.000000
												CHANNELS 3 Xrotation Yrotation Zrotation
												End Site
												{
													OFFSET -2.888702 -0.000076 -0.003599
												}
											}
										}
									}
								}
								JOINT mixamorig7:RightHandRing1
								{
									OFFSET -11.158524 -0.069885 -2.264038
									CHANNELS 3 Xrotation Yrotation Zrotation
									JOINT mixamorig7:RightHandRing2
									{
										OFFSET -2.878105 0.000000 0.000000
										CHANNELS 3 Xrotation Yrotation Zrotation
										JOINT mixamorig7:RightHandRing3
										{
											OFFSET -2.739204 0.000000 0.000000
											CHANNELS 3 Xrotation Yrotation Zrotation
											JOINT mixamorig7:RightHandRing4
											{
												OFFSET -2.335304 0.000000 0.000000
												CHANNELS 3 Xrotation Yrotation Zrotation
												End Site
												{
													OFFSET -2.335297 0.000061 0.001999
												}
											}
										}
									}
								}
								JOINT mixamorig7:RightHandPinky1
								{
									OFFSET -9.865288 -0.197952 -4.417972
									CHANNELS 3 Xrotation Yrotation Zrotation
									JOINT mixamorig7:RightHandPinky2
									{
										OFFSET -2.659409 0.000000 0.000000
										CHANNELS 3 Xrotation Yrotation Zrotation
										JOINT mixamorig7:RightHandPinky3
										{
											OFFSET -2.181625 0.000000 0.000000
											CHANNELS 3 Xrotation Yrotation Zrotation
											JOINT mixamorig7:RightHandPinky4
											{
												OFFSET -1.923111 0.000000 0.000000
												CHANNELS 3 Xrotation Yrotation Zrotation
												End Site
												{
													OFFSET -1.923103 0.000153 0.005198
												}
											}
										}
									}
								}
							}
						}
					}
				}
			}
		}
	}
	JOINT mixamorig7:LeftUpLeg
	{
		OFFSET 8.726300 -5.393196 -0.445400
		CHANNELS 3 Xrotation Yrotation Zrotation
		JOINT mixamorig7:LeftLeg
		{
			OFFSET 0.203112 -40.995728 -2.240422
			CHANNELS 3 Xrotation Yrotation Zrotation
			JOINT mixamorig7:LeftFoot
			{
				OFFSET -0.203116 -41.811745 -4.341125
				CHANNELS 3 Xrotation Yrotation Zrotation
				JOINT mixamorig7:LeftToeBase
				{
					OFFSET 2.022961 -9.567262 15.917597
					CHANNELS 3 Xrotation Yrotation Zrotation
					JOINT mixamorig7:LeftToe_End
					{
						OFFSET 0.919500 0.587269 6.993709
						CHANNELS 3 Xrotation Yrotation Zrotation
						End Site
						{
							OFFSET 0.919500 0.587269 6.993710
						}
					}
				}
			}
		}
	}
	JOINT mixamorig7:RightUpLeg
	{
		OFFSET -8.726300 -5.393196 -0.458900
		CHANNELS 3 Xrotation Yrotation Zrotation
		JOINT mixamorig7:RightLeg
		{
			OFFSET -0.203119 -40.995686 -2.183443
			CHANNELS 3 Xrotation Yrotation Zrotation
			JOINT mixamorig7:RightFoot
			{
				OFFSET 0.203109 -41.812000 -3.686646
				CHANNELS 3 Xrotation Yrotation Zrotation
				JOINT mixamorig7:RightToeBase
				{
					OFFSET -2.022940 -9.566534 15.362668
					CHANNELS 3 Xrotation Yrotation Zrotation
					JOINT mixamorig7:RightToe_End
					{
						OFFSET -0.919481 0.587567 7.048032
						CHANNELS 3 Xrotation Yrotation Zrotation
						End Site
						{
							OFFSET -0.919481 0.587567 7.048031
						}
					}
				}
			}
		}
	}
}
MOTION
Frames: 6
Frame Time: 0.016667
-0.720839 90.231171 0.000322 -72.654430 -98.388998 -75.006870 5.098143 -2.923119 -0.919623 4.847010 -2.724693 -1.011896 4.872828 -2.670308 -1.025820 -6.470356 11.543108 1.332229 18.510895 10.938843 -3.762131 0.000001 0.000001 0.000000 2.334451 -16.473672 5.405037 -58.657548 -59.148325 -60.618899 0.000620 -91.815795 0.000646 -1.362829 2.416333 38.308407 2.333990 -4.852064 -3.963502 13.533837 36.265893 -6.789684 18.237408 69.607646 3.188422 0.000005 0.000004 0.000000 2.878045 7.353392 -58.659652 6.385708 5.826671 -95.251865 2.817848 5.005802 -58.730550 -0.000001 0.000000 -0.000000 2.878031 7.353404 -58.659659 6.420604 5.823395 -95.595252 1.278817 3.654827 -38.558764 -0.000003 -0.000000 0.000000 3.051720 7.454252 -60.629718 5.249892 5.820229 -84.092831 2.817843 5.005818 -58.730543 0.000001 -0.000001 -0.000001 2.878030 7.353394 -58.659652 3.100877 5.166425 -61.922242 2.817822 5.005807 -58.730550 0.000002 0.000000 0.000001 2.128870 10.933926 -13.435729 -29.167776 -8.101100 18.902878 0.000011 129.787746 0.000012 -48.886676 35.994376 -4.322227 2.454511 6.926600 5.617154 7.810676 -26.809498 -3.040607 18.936471 -62.858654 1.747838 -0.000000 0.000005 -0.000005 2.770850 -6.512098 65.405366 4.589337 -4.656682 89.164698 1.495821 -3.421565 47.217542 0.000001 -0.000001 -0.000001 2.634513 -6.539958 74.809225 5.688684 -4.541730 102.810261 1.460406 -3.388486 46.621106 -0.000000 0.000000 0.000000 3.122556 -6.655062 70.080876 5.298702 -4.612877 97.926328 2.043378 -3.855864 55.828972 -0.000000 -0.000000 -0.000000 4.911913 -9.704422 53.806198 4.184460 -4.633167 84.168025 1.827797 -3.700709 52.558541 -0.000001 0.000000 0.000004 -43.411125 6.752094 27.327020 40.615283 -7.744110 1.422733 -5.107361 1.108837 -15.073005 -0.008962 0.000017 -0.010747 0.000001 -0.000001 0.000000 -45.075051 -4.267304 -10.914783 50.456161 -6.816288 -0.005478 -10.941051 -1.364962 9.662409 -0.000018 -0.000010 -0.000009 -0.000001 0.000001 -0.000000 
-0.735543 90.229591 -0.096775 -73.957493 -98.367736 -76.449030 5.098606 -2.892922 -0.931381 4.845610 -2.696536 -1.025489 4.871621 -2.640651 -1.039826 -6.105955 11.553040 1.268582 18.426122 10.945495 -3.733977 -0.000002 0.000000 -0.000000 2.319961 -16.376007 5.393247 -59.407954 -59.361311 -61.425421 0.000426 -91.494332 0.000441 -1.153637 2.253580 37.880717 2.333980 -4.852050 -3.963496 13.533844 36.265890 -6.789675 18.237414 69.607646 3.188425 -0.000001 0.000003 0.000002 2.878036 7.353396 -58.659686 6.385726 5.826674 -95.251872 2.817860 5.005779 -58.730543 0.000001 0.000001 0.000001 2.878026 7.353401 -58.659673 6.420579 5.823406 -95.595239 1.278807 3.654844 -38.558774 -0.000002 -0.000003 0.000002 3.051698 7.454274 -60.629725 5.249917 5.820230 -84.092825 2.817850 5.005815 -58.730556 -0.000000 0.000001 0.000001 2.878014 7.353401 -58.659666 3.100875 5.166425 -61.922242 2.817824 5.005809 -58.730550 -0.000000 0.000002 -0.000001 2.113509 10.896786 -13.369734 -29.123694 -8.645507 19.254074 0.000029 129.968227 -0.000011 -48.753122 36.045439 -4.205208 2.454507 6.926625 5.617155 7.810682 -26.809503 -3.040607 18.936488 -62.858675 1.747866 0.000001 0.000001 -0.000005 2.770852 -6.512089 65.405379 4.589344 -4.656671 89.164711 1.495815 -3.421560 47.217531 -0.000000 0.000000 -0.000001 2.634525 -6.539952 74.809225 5.688695 -4.541727 102.810289 1.460407 -3.388483 46.621119 -0.000001 -0.000000 0.000000 3.122537 -6.655059 70.080903 5.298704 -4.612887 97.926300 2.043382 -3.855874 55.828959 0.000001 -0.000000 0.000000 4.911915 -9.704407 53.806222 4.184474 -4.633180 84.168005 1.827797 -3.700693 52.558541 -0.000003 0.000000 0.000000 -43.486940 6.606798 27.437503 40.538617 -7.910114 1.423128 -5.032866 1.111817 -15.105971 -0.008964 0.000022 -0.010743 0.000001 -0.000001 0.000000 -45.031273 -4.358393 -10.799543 50.481368 -7.017584 0.050576 -11.003431 -1.369335 9.651413 -0.000017 -0.000023 0.000001 -0.000001 -0.000003 -0.000000 
-0.750414 90.225838 -0.220994 -75.337410 -98.342129 -77.956555 5.099561 -2.864788 -0.945005 4.845124 -2.669919 -1.040676 4.871386 -2.612317 -1.055548 -5.735329 11.562981 1.204520 18.336459 10.952787 -3.704258 0.000001 -0.000001 -0.000000 2.306289 -16.281924 5.383871 -60.138996 -59.459829 -62.142277 0.000998 -91.225892 0.000977 -0.858151 2.035255 37.517741 2.334000 -4.852052 -3.963498 13.533841 36.265890 -6.789683 18.237399 69.607646 3.188413 0.000004 0.000003 0.000006 2.878043 7.353394 -58.659686 6.385723 5.826676 -95.251872 2.817845 5.005790 -58.730543 0.000002 0.000001 0.000001 2.878036 7.353402 -58.659686 6.420603 5.823412 -95.595252 1.278811 3.654836 -38.558778 -0.000001 0.000001 0.000003 3.051713 7.454258 -60.629711 5.249930 5.820224 -84.092838 2.817847 5.005780 -58.730556 0.000002 -0.000002 -0.000002 2.878028 7.353393 -58.659679 3.100879 5.166425 -61.922249 2.817823 5.005806 -58.730550 -0.000001 0.000001 -0.000000 2.100533 10.871444 -13.308135 -29.256060 -9.013369 19.476853 0.000026 130.094190 0.000005 -48.564127 36.053939 -4.116946 2.454476 6.926615 5.617159 7.810704 -26.809517 -3.040601 18.936466 -62.858654 1.747838 0.000002 -0.000001 -0.000001 2.770821 -6.512093 65.405359 4.589330 -4.656692 89.164691 1.495800 -3.421554 47.217535 -0.000002 -0.000001 -0.000002 2.634500 -6.539972 74.809218 5.688685 -4.541744 102.810282 1.460410 -3.388485 46.621106 0.000002 -0.000000 0.000000 3.122529 -6.655078 70.080910 5.298712 -4.612885 97.926300 2.043379 -3.855866 55.828959 -0.000001 0.000000 -0.000000 4.911869 -9.704419 53.806209 4.184480 -4.633177 84.168011 1.827796 -3.700672 52.558514 0.000003 0.000000 0.000003 -43.539089 6.454618 27.537952 40.429327 -8.038432 1.436583 -4.939087 1.083234 -15.172126 -0.008998 -0.000005 -0.010787 0.000000 0.000001 -0.000000 -44.992611 -4.457796 -10.686386 50.533923 -7.220606 0.109958 -11.086638 -1.373749 9.623144 0.000003 -0.000010 -0.000004 -0.000001 -0.000001 -0.000000 
-0.764989 90.220711 -0.361903 -76.769919 -98.316243 -79.507432 5.100816 -2.837854 -0.959832 4.845245 -2.644115 -1.056880 4.871787 -2.584750 -1.072359 -5.360282 11.572527 1.140493 18.242286 10.960422 -3.672771 -0.000001 -0.000001 0.000000 2.293339 -16.192789 5.375454 -60.847471 -59.476502 -62.783276 0.000764 -90.992955 0.000714 -0.511997 1.771108 37.203938 2.333983 -4.852049 -3.963515 13.533842 36.265890 -6.789681 18.237380 69.607646 3.188408 0.000006 0.000002 -0.000003 2.878023 7.353396 -58.659679 6.385721 5.826670 -95.251851 2.817860 5.005803 -58.730556 0.000002 0.000001 0.000000 2.878021 7.353396 -58.659666 6.420569 5.823383 -95.595246 1.278798 3.654850 -38.558781 0.000001 0.000001 -0.000002 3.051694 7.454267 -60.629704 5.249904 5.820230 -84.092825 2.817861 5.005804 -58.730536 -0.000001 -0.000000 -0.000003 2.878010 7.353393 -58.659673 3.100883 5.166425 -61.922249 2.817825 5.005809 -58.730550 -0.000001 0.000001 -0.000002 2.089515 10.854835 -13.251350 -29.512305 -9.251125 19.595662 0.000020 130.178679 0.000007 -48.336726 36.032588 -4.060445 2.454495 6.926600 5.617172 7.810670 -26.809493 -3.040615 18.936476 -62.858654 1.747844 -0.000002 0.000002 -0.000000 2.770825 -6.512104 65.405372 4.589345 -4.656689 89.164711 1.495811 -3.421559 47.217531 -0.000003 -0.000000 0.000001 2.634515 -6.539989 74.809231 5.688693 -4.541737 102.810275 1.460405 -3.388490 46.621116 0.000001 0.000000 0.000000 3.122551 -6.655080 70.080910 5.298705 -4.612873 97.926300 2.043387 -3.855876 55.828959 -0.000000 -0.000000 -0.000000 4.911914 -9.704423 53.806219 4.184473 -4.633179 84.168025 1.827787 -3.700678 52.558507 -0.000000 0.000001 -0.000000 -43.574824 6.298800 27.629150 40.297525 -8.142000 1.458235 -4.832238 1.035571 -15.259297 -0.008991 -0.000024 -0.010770 0.000001 0.000001 0.000000 -44.958183 -4.560983 -10.575410 50.603768 -7.425078 0.169895 -11.182259 -1.378152 9.585260 -0.000001 -0.000003 -0.000002 -0.000000 -0.000001 -0.000000 
-0.778735 90.215080 -0.519583 -78.258682 -98.289974 -81.102445 5.102394 -2.811895 -0.975726 4.846039 -2.618971 -1.073936 4.872880 -2.557695 -1.090129 -4.980282 11.581053 1.076870 18.141753 10.968108 -3.638602 0.000001 -0.000000 0.000001 2.281407 -16.112124 5.367181 -61.517403 -59.404969 -63.323217 0.001720 -90.796526 0.001657 -0.120980 1.450361 36.950012 2.333999 -4.852024 -3.963489 13.533842 36.265890 -6.789683 18.237396 69.607646 3.188412 -0.000000 0.000002 0.000003 2.878050 7.353411 -58.659666 6.385709 5.826656 -95.251865 2.817860 5.005797 -58.730556 0.000000 -0.000001 -0.000000 2.878044 7.353410 -58.659666 6.420575 5.823401 -95.595225 1.278806 3.654837 -38.558767 -0.000000 0.000001 0.000003 3.051699 7.454263 -60.629704 5.249917 5.820224 -84.092845 2.817853 5.005802 -58.730536 -0.000001 -0.000001 -0.000003 2.878028 7.353414 -58.659659 3.100877 5.166425 -61.922249 2.817824 5.005809 -58.730550 0.000000 -0.000000 0.000003 2.080895 10.848505 -13.201799 -29.902473 -9.337358 19.584973 0.000035 130.213595 -0.000013 -48.067528 35.979125 -4.051672 2.454495 6.926613 5.617190 7.810666 -26.809490 -3.040632 18.936489 -62.858675 1.747887 -0.000002 0.000003 -0.000001 2.770840 -6.512099 65.405372 4.589344 -4.656659 89.164691 1.495815 -3.421541 47.217511 0.000000 -0.000000 0.000001 2.634513 -6.539969 74.809231 5.688684 -4.541737 102.810289 1.460392 -3.388484 46.621109 -0.000002 -0.000000 0.000000 3.122533 -6.655078 70.080910 5.298698 -4.612880 97.926300 2.043374 -3.855865 55.828959 -0.000001 0.000000 0.000000 4.911913 -9.704445 53.806215 4.184497 -4.633170 84.168018 1.827788 -3.700675 52.558507 0.000000 0.000000 0.000001 -43.590301 6.140027 27.706714 40.138628 -8.217912 1.488621 -4.710101 0.968756 -15.368423 -0.008880 0.000022 -0.010634 0.000000 0.000001 0.000000 -44.927024 -4.666930 -10.468127 50.688565 -7.631639 0.228705 -11.288939 -1.382367 9.538515 0.000018 -0.000018 0.000003 -0.000001 -0.000000 -0.000000 
-0.790952 90.209900 -0.690541 -79.800925 -98.264135 -82.736725 5.104348 -2.786424 -0.992059 4.847537 -2.593955 -1.091192 4.874654 -2.530715 -1.108176 -4.595629 11.587824 1.014079 18.033265 10.975529 -3.600927 0.000003 0.000000 -0.000000 2.270640 -16.043594 5.357101 -62.132544 -59.255470 -63.746463 0.001630 -90.630190 0.001901 0.290928 1.068341 36.760331 2.333994 -4.852026 -3.963491 13.533841 36.265893 -6.789680 18.237389 69.607646 3.188407 0.000001 0.000002 0.000001 2.878043 7.353415 -58.659666 6.385727 5.826682 -95.251872 2.817863 5.005769 -58.730556 -0.000001 -0.000000 -0.000002 2.878036 7.353421 -58.659673 6.420578 5.823401 -95.595218 1.278825 3.654847 -38.558774 0.000000 0.000002 0.000001 3.051700 7.454278 -60.629718 5.249905 5.820227 -84.092825 2.817862 5.005809 -58.730550 0.000001 -0.000000 -0.000001 2.878025 7.353415 -58.659652 3.100875 5.166425 -61.922242 2.817821 5.005803 -58.730543 -0.000000 0.000000 0.000001 2.074891 10.852229 -13.161654 -30.406353 -9.272159 19.435175 0.000040 130.198705 -0.000022 -47.760764 35.895506 -4.107765 2.454493 6.926613 5.617175 7.810685 -26.809493 -3.040615 18.936464 -62.858682 1.747844 -0.000000 0.000001 -0.000003 2.770838 -6.512101 65.405379 4.589343 -4.656685 89.164718 1.495812 -3.421549 47.217521 -0.000001 0.000000 0.000001 2.634511 -6.539970 74.809225 5.688697 -4.541736 102.810296 1.460403 -3.388494 46.621102 -0.000001 -0.000000 -0.000000 3.122525 -6.655073 70.080924 5.298701 -4.612882 97.926294 2.043393 -3.855879 55.828962 -0.000001 0.000000 -0.000000 4.911912 -9.704420 53.806219 4.184464 -4.633178 84.168005 1.827803 -3.700695 52.558538 -0.000001 -0.000002 -0.000001 -43.584352 5.979211 27.766249 39.952474 -8.267441 1.526944 -4.572955 0.887305 -15.496492 -0.008688 0.000025 -0.010413 0.000000 -0.000001 0.000000 -44.898389 -4.773412 -10.366552 50.783758 -7.840489 0.284125 -11.402848 -1.386257 9.486056 0.000000 -0.000005 -0.000006 -0.000001 0.000000 -0.000000 
